<svg width="24" height="24" viewBox="0 0 24 24" fill="none" xmlns="http://www.w3.org/2000/svg">
<path fill-rule="evenodd" clip-rule="evenodd" d="M16.7731 3.22703C15.5072 1.96116 13.7903 1.25 12.0001 1.25C10.2098 1.25 8.49296 1.96116 7.22709 3.22703C5.96122 4.4929 5.25006 6.20979 5.25006 8C5.25006 11.3895 4.52476 13.5135 3.84164 14.7659C3.49904 15.394 3.16298 15.8104 2.92434 16.0623C2.80483 16.1885 2.70925 16.2739 2.64883 16.3242C2.61861 16.3494 2.59716 16.3658 2.58589 16.3742L2.57831 16.3798L2.58064 16.3782L2.5822 16.3772L2.58308 16.3766L2.58315 16.3766L2.57713 16.3807C2.30699 16.565 2.18727 16.9037 2.28224 17.2173C2.37801 17.5337 2.66956 17.75 3.00006 17.75H21.0001C21.3306 17.75 21.6221 17.5337 21.7179 17.2173C21.8137 16.901 21.6911 16.5593 21.4161 16.376L21.0001 17V16.25H19.3103C19.1568 16.0265 18.9987 15.7721 18.8417 15.4841C18.0248 13.9865 17.2501 11.6105 17.2501 8C17.2501 6.60761 16.697 5.27226 15.7124 4.28769C14.7278 3.30312 13.3925 2.75 12.0001 2.75C10.6077 2.75 9.27232 3.30312 8.28775 4.28769C7.30318 5.27226 6.75006 6.60761 6.75006 8C6.75006 11.6105 5.97536 13.9865 5.15848 15.4841C5.0014 15.7721 4.84335 16.0265 4.68986 16.25H3.00006V17C3.41608 17.624 3.41659 17.6237 3.4171 17.6234L3.41819 17.6226L3.42057 17.621L3.42616 17.6172L3.44053 17.6072C3.45151 17.5995 3.46527 17.5896 3.48161 17.5774C3.51429 17.5531 3.55729 17.5197 3.6091 17.4766C3.71275 17.3902 3.85154 17.2647 4.01327 17.0939C4.21227 16.8839 4.44527 16.6062 4.68986 16.25H19.3103C19.5548 16.6062 19.7878 16.8839 19.9869 17.0939C20.1486 17.2647 20.2874 17.3902 20.3911 17.4766C20.4429 17.5197 20.4859 17.5531 20.5185 17.5774C20.5349 17.5896 20.5486 17.5995 20.5596 17.6072L20.574 17.6172L20.5796 17.621L20.582 17.6226L20.5831 17.6234C20.5836 17.6237 20.5841 17.624 21.0001 17C21.4161 16.376 21.4166 16.3763 21.4171 16.3766L21.418 16.3772L21.4195 16.3782L21.4218 16.3798C21.423 16.3806 21.4235 16.381 21.4234 16.3809L21.4143 16.3742C21.403 16.3658 21.3816 16.3494 21.3513 16.3242C21.2909 16.2739 21.1953 16.1885 21.0758 16.0623C20.8372 15.8104 20.5011 15.394 20.1585 14.7659C19.4754 13.5135 18.7501 11.3895 18.7501 8C18.7501 6.20979 18.0389 4.4929 16.7731 3.22703ZM2.58315 16.3766L2.58403 16.376L2.99891 16.9983C2.59791 16.3968 2.58405 16.377 2.58315 16.3766Z" fill="#909090"/>
<path fill-rule="evenodd" clip-rule="evenodd" d="M9.89381 20.3514C10.2521 20.1435 10.7111 20.2655 10.9189 20.6238C11.0288 20.8132 11.1865 20.9705 11.3763 21.0798C11.566 21.1891 11.7812 21.2466 12.0001 21.2466C12.2191 21.2466 12.4343 21.1891 12.624 21.0798C12.8138 20.9705 12.9715 20.8132 13.0814 20.6238C13.2892 20.2655 13.7482 20.1435 14.1065 20.3514C14.4648 20.5592 14.5867 21.0182 14.3789 21.3765C14.1372 21.7932 13.7902 22.1391 13.3727 22.3796C12.9552 22.62 12.4819 22.7466 12.0001 22.7466C11.5184 22.7466 11.0451 22.62 10.6276 22.3796C10.2101 22.1391 9.86313 21.7932 9.62139 21.3765C9.41355 21.0182 9.53552 20.5592 9.89381 20.3514Z" fill="#909090"/>
</svg>
