<svg width="16" height="20" viewBox="0 0 16 20" fill="none" xmlns="http://www.w3.org/2000/svg">
<path d="M0.9972 19.2499H0.996954C0.918006 19.2499 0.865936 19.2156 0.840589 19.1813C0.793489 19.1174 0.75 19.0184 0.75 18.8638V1.69774C0.75 1.2668 1.21468 0.75 1.8818 0.75H14.1849C14.8157 0.75 15.25 1.23343 15.25 1.69774V18.8639C15.25 19.1034 15.1815 19.1879 15.1626 19.2076C15.1409 19.2303 15.1058 19.25 15.0466 19.25C14.9832 19.25 14.8607 19.2254 14.6657 19.0684L14.6651 19.0679L9.18001 14.6617C9.17992 14.6617 9.17983 14.6616 9.17975 14.6615C8.85452 14.3995 8.43658 14.2799 8.0414 14.2799C7.64706 14.2799 7.22869 14.399 6.9036 14.6606C6.9033 14.6608 6.90299 14.6611 6.90269 14.6613L1.40009 19.0679L1.39843 19.0692C1.21683 19.2155 1.07327 19.2499 0.9972 19.2499Z" stroke="#909090" stroke-width="1.5"/>
</svg>
