<svg width="89" height="20" viewBox="0 0 89 20" fill="none" xmlns="http://www.w3.org/2000/svg">
<path d="M88.8747 0V20H0.125V0H88.8747Z" fill="#FFCC00"/>
<path d="M15.7324 3.5918L12.897 7.52558H28.3507C29.1319 7.52558 29.1216 7.82866 28.7398 8.35678C28.3521 8.89307 27.7032 9.82543 27.3082 10.3698C27.1078 10.6463 26.7455 11.1497 27.9463 11.1497H34.2659C34.2659 11.1497 35.2845 9.73433 36.1383 8.55105C37.3 6.94145 36.239 3.5918 32.0863 3.5918H15.7324Z" fill="#BF190E"/>
<path d="M11.7495 16.4075L17.4448 8.50537C17.4448 8.50537 23.7584 8.50544 24.5124 8.50544C25.2935 8.50544 25.2832 8.80852 24.9015 9.3367C24.5138 9.87301 23.8541 10.7954 23.4592 11.3401C23.2587 11.6164 22.8964 12.1208 24.0971 12.1208H33.5652C32.7779 13.2223 30.2237 16.4075 25.6374 16.4075H11.7495Z" fill="#BF190E"/>
<path d="M44.3667 12.1196L41.2783 16.4072H33.1313C33.1313 16.4072 36.2181 12.1206 36.2208 12.1206L44.3667 12.1196Z" fill="#BF190E"/>
<path d="M56.8475 11.1498H36.9204L42.3696 3.5918H50.5141L47.3909 7.92573H51.0265L54.151 3.5918H62.2948L56.8475 11.1498Z" fill="#BF190E"/>
<path d="M56.148 12.1206L53.0581 16.4073H44.9141C44.9141 16.4073 48.0009 12.1206 48.0037 12.1206H56.148Z" fill="#BF190E"/>
<path d="M0.125 13.811H12.1267L11.4709 14.7219H0.125V13.811Z" fill="#BF190E"/>
<path d="M0.125 12.1206H13.346L12.6891 13.0302H0.125V12.1206Z" fill="#BF190E"/>
<path d="M0.125 15.5024H10.908L10.2555 16.4074H0.125V15.5024Z" fill="#BF190E"/>
<path d="M88.8752 14.7219H76.9194L77.5755 13.811H88.8752V14.7219Z" fill="#BF190E"/>
<path d="M88.8748 16.4074L75.7036 16.4085L76.3561 15.5024H88.8748V16.4074Z" fill="#BF190E"/>
<path d="M78.7933 12.1206H88.8753V13.0306L78.1382 13.0313L78.7933 12.1206Z" fill="#BF190E"/>
<path d="M73.5745 3.5918L68.126 11.1497H59.4961C59.4961 11.1497 64.9455 3.5918 64.9483 3.5918H73.5745Z" fill="#BF190E"/>
<path d="M58.7974 12.1206C58.7974 12.1206 58.2021 12.9514 57.9129 13.3507C56.8899 14.7624 57.7943 16.4073 61.1328 16.4073H74.2125L77.3021 12.1206H58.7974Z" fill="#BF190E"/>
</svg>
