<svg width="24" height="24" viewBox="0 0 24 24" fill="none" xmlns="http://www.w3.org/2000/svg">
<g clip-path="url(#clip0_18_5767)">
<mask id="mask0_18_5767" style="mask-type:luminance" maskUnits="userSpaceOnUse" x="0" y="0" width="24" height="24">
<rect width="24" height="24" fill="white"/>
</mask>
<g mask="url(#mask0_18_5767)">
<path d="M22 12.6666C21.9122 12.6671 21.8253 12.6503 21.744 12.6171C21.6628 12.5839 21.5889 12.535 21.5266 12.4733L12 2.93989L2.47335 12.4733C2.34582 12.5825 2.18177 12.6395 2.01398 12.6331C1.8462 12.6266 1.68704 12.557 1.56831 12.4383C1.44958 12.3196 1.38002 12.1604 1.37354 11.9926C1.36706 11.8248 1.42413 11.6608 1.53335 11.5333L11.5333 1.53322C11.6582 1.40905 11.8272 1.33936 12.0033 1.33936C12.1794 1.33936 12.3484 1.40905 12.4733 1.53322L22.4733 11.5333C22.565 11.6268 22.6272 11.7454 22.6519 11.8741C22.6766 12.0028 22.6629 12.1359 22.6124 12.2569C22.5619 12.3778 22.4768 12.4811 22.3679 12.554C22.259 12.6269 22.131 12.6661 22 12.6666Z" fill="#242424"/>
<path d="M12 5.19336L4 13.22V21.3334C4 21.687 4.14048 22.0262 4.39052 22.2762C4.64057 22.5263 4.97971 22.6667 5.33333 22.6667H10V16.0001H14V22.6667H18.6667C19.0203 22.6667 19.3594 22.5263 19.6095 22.2762C19.8595 22.0262 20 21.687 20 21.3334V13.1734L12 5.19336Z" fill="#242424"/>
</g>
</g>
<defs>
<clipPath id="clip0_18_5767">
<rect width="24" height="24" fill="white"/>
</clipPath>
</defs>
</svg>
