<svg width="65" height="64" viewBox="0 0 65 64" fill="none" xmlns="http://www.w3.org/2000/svg">
<path fill-rule="evenodd" clip-rule="evenodd" d="M64.0029 32.0014C64.0029 49.6461 49.6491 64 32.0015 64C14.3568 64 0.00296402 49.6461 6.10352e-05 32.0014C6.10352e-05 14.3538 14.3539 0 32.0015 0C49.6491 0 64.0029 14.3538 64.0029 32.0014ZM63.4235 32.0014C63.4235 14.6763 49.3266 0.579406 32.0015 0.579406C14.6764 0.579406 0.582329 14.6763 0.582329 32.0014C0.582329 49.3265 14.6793 63.4206 32.0044 63.4206C49.3294 63.4206 63.4235 49.3265 63.4235 32.0014Z" fill="#303030"/>
<path d="M18.8065 43.6035L34.0114 44.9534C34.0245 43.7271 34.1087 39.4773 34.7166 37.5431C35.4087 35.3353 41.6901 36.1379 43.2874 36.38C44.1821 31.8801 45.7005 29.0302 45.7662 28.9092C45.8452 28.7618 46.0294 28.7065 46.1768 28.7855C46.3241 28.8644 46.3794 29.0486 46.3004 29.196C46.2847 29.225 44.6952 32.2143 43.8268 36.78C43.7953 36.9405 43.64 37.0484 43.4795 37.0221C40.5506 36.5379 35.7403 36.2984 35.2955 37.7221C34.6245 39.8589 34.6166 45.2298 34.6166 45.2824C34.6166 45.3666 34.5797 45.4482 34.5192 45.5061C34.464 45.5561 34.3903 45.585 34.314 45.585C34.3061 45.585 34.2955 45.585 34.2876 45.585L18.7565 44.2061C18.5908 44.1903 18.4671 44.0429 18.4828 43.8771C18.4907 43.7114 18.6407 43.5903 18.8065 43.6035V43.6035Z" fill="#303030"/>
<path fill-rule="evenodd" clip-rule="evenodd" d="M16.9753 35.4407C16.4727 35.5275 16.1043 35.767 15.878 36.1538C15.3754 37.0143 15.8122 38.2853 15.8359 38.3379L15.8363 38.3388C15.8414 38.3517 15.8466 38.3645 15.8543 38.3774L16.4675 39.5432V50.2402C16.4675 50.3692 16.5491 50.4745 16.6622 50.5192V50.856C16.6622 50.9613 16.7412 51.0507 16.8464 51.0639L18.1911 51.2218C18.3148 51.2349 18.4226 51.1376 18.4226 51.0139V50.7297L34.338 52.4875V53.0112C34.338 53.1323 34.4248 53.2375 34.5433 53.2586L36.109 53.5507C36.1485 53.5586 36.1906 53.556 36.23 53.5428L38.301 52.9034C38.4089 52.8692 38.48 52.7718 38.48 52.6612V52.1165L45.0193 50.4719V50.8902C45.0193 51.0507 45.1693 51.1666 45.3245 51.1271L46.8271 50.735C46.935 50.706 47.0087 50.6086 47.0087 50.4982V49.9718L47.0824 49.9534C47.2061 49.9218 47.2982 49.8165 47.3087 49.6877L49.1955 29.4751C49.256 28.8409 48.9955 28.2277 48.5008 27.8277C48.0166 27.4356 47.3745 27.312 46.7824 27.4909C43.8581 27.8348 42.5914 27.8906 40.6887 27.9745L40.6747 27.9751L40.6447 27.9764C40.0658 28.0024 39.4273 28.031 38.6642 28.0698C37.1721 28.1462 35.8406 27.9751 34.667 27.8225L34.6543 27.8208C33.2123 27.6347 31.9638 27.4735 30.846 27.8225C28.453 28.5667 29.2896 31.4972 29.6926 32.9089L29.6934 32.9118C30.0803 34.267 29.8592 35.7933 29.7461 36.3907C27.9697 36.1933 18.5569 35.167 16.9753 35.4407ZM17.0333 39.3326L16.3965 38.1196C16.2938 37.8064 16.107 36.9591 16.3965 36.467C16.5306 36.2406 16.7517 36.1012 17.0727 36.0459C18.3753 35.8196 26.0619 36.5933 29.946 37.0327C30.1013 37.0512 30.2382 36.9538 30.275 36.8064L30.2753 36.8051C30.3005 36.701 30.8041 34.6218 30.2723 32.7565C29.7118 30.7961 29.4144 28.9119 31.0224 28.4119C32.017 28.1014 33.2064 28.254 34.5854 28.433C35.7854 28.5882 37.1458 28.7619 38.6932 28.683C39.4343 28.6452 40.0595 28.617 40.6243 28.5916L40.6984 28.5882L40.7563 28.5856C42.653 28.5003 43.9334 28.4426 46.8771 28.0962C46.8982 28.0935 46.9166 28.0883 46.935 28.083C47.3534 27.9514 47.7824 28.033 48.1192 28.304C48.456 28.5751 48.6323 28.9935 48.5929 29.4224L46.7245 49.4219L36.4774 51.9981L36.8169 39.6774C36.8221 39.5117 36.6905 39.3722 36.5221 39.3669C36.3563 39.359 36.2169 39.4931 36.2116 39.6617L35.8695 52.0533L17.0675 49.9771V39.4747C17.0675 39.4248 17.057 39.3774 17.0333 39.3326Z" fill="#303030"/>
<path d="M20.6388 34.901C20.8072 34.901 20.9414 34.7642 20.9414 34.5984V21.8251C20.9414 21.6567 20.8046 21.5225 20.6388 21.5225C20.4704 21.5225 20.3362 21.6593 20.3362 21.8251V34.5984C20.3362 34.7668 20.473 34.901 20.6388 34.901V34.901Z" fill="#303030"/>
<path d="M15.1019 21.1751H26.1779C26.2753 21.1751 26.3674 21.1278 26.4253 21.0461C26.4831 20.9673 26.4963 20.8646 26.4647 20.7698L22.9175 10.6465C22.8754 10.5254 22.7596 10.4438 22.6306 10.4438L18.6492 10.4438C18.5202 10.4438 18.4071 10.5254 18.3623 10.6465L14.8151 20.7698C14.7835 20.862 14.7966 20.9646 14.8545 21.0461C14.9125 21.1278 15.0045 21.1751 15.1019 21.1751V21.1751Z" fill="#303030"/>
<path d="M19.2677 23.7934C19.4361 23.7934 19.5703 23.6566 19.5703 23.4908V21.8251C19.5703 21.6567 19.4335 21.5225 19.2677 21.5225C19.0993 21.5225 18.9651 21.6593 18.9651 21.8251V23.4908C18.9651 23.6566 19.0993 23.7934 19.2677 23.7934V23.7934Z" fill="#303030"/>
<path d="M23.107 23.3724C23.9596 23.3724 24.6543 22.6777 24.6543 21.8251C24.6543 21.6567 24.5175 21.5225 24.3517 21.5225C24.1833 21.5225 24.0491 21.6593 24.0491 21.8251C24.0491 22.3435 23.6254 22.7672 23.107 22.7672C22.5886 22.7672 22.1649 22.3435 22.1649 21.8251C22.1649 21.6567 22.0281 21.5225 21.8623 21.5225C21.6939 21.5225 21.5596 21.6593 21.5596 21.8251C21.5596 22.6777 22.2544 23.3724 23.107 23.3724V23.3724Z" fill="#303030"/>
</svg>
