<svg width="32" height="25" viewBox="0 0 32 25" fill="none" xmlns="http://www.w3.org/2000/svg">
<mask id="mask0_97_617" style="mask-type:luminance" maskUnits="userSpaceOnUse" x="0" y="0" width="32" height="25">
<rect width="31.0671" height="24.2711" fill="white"/>
</mask>
<g mask="url(#mask0_97_617)">
<path fill-rule="evenodd" clip-rule="evenodd" d="M29.5444 22.8651V20.5625H28.985V21.9012C28.7985 21.6602 28.5321 21.5264 28.1857 21.5264C27.4664 21.5264 26.907 22.0886 26.907 22.8651C26.907 23.6416 27.4664 24.2038 28.1857 24.2038C28.5587 24.2038 28.8251 24.07 28.985 23.829V24.1503H29.5444V22.8651ZM13.0272 21.5799H13.933V22.0886H13.0272V23.2399C13.0272 23.5077 13.1338 23.6683 13.4002 23.6683C13.5334 23.6683 13.7199 23.6416 13.8797 23.5345L14.0396 24.0164C13.8531 24.1235 13.5867 24.2038 13.3469 24.2038C12.7076 24.2038 12.4678 23.8558 12.4678 23.2667V22.0886H11.9616V21.5799H12.4678V20.8035H13.0272V21.5799ZM5.64779 22.5438V24.1503H5.03506V22.7312C5.03506 22.3028 4.84857 22.0619 4.4756 22.0619C4.12928 22.0619 3.86287 22.2761 3.86287 22.7312V24.1503H3.30342V22.7312C3.30342 22.3028 3.11693 22.0619 2.74397 22.0619C2.37099 22.0619 2.13123 22.2761 2.13123 22.7312V24.1503H1.57178V21.5799H2.13123V21.9012C2.34435 21.6067 2.61076 21.5264 2.87717 21.5264C3.27678 21.5264 3.54318 21.687 3.72967 21.9815C3.96943 21.6335 4.31576 21.5264 4.63545 21.5264C5.27482 21.5264 5.64779 21.928 5.64779 22.5438ZM18.6751 21.5264C18.3554 21.5264 18.1422 21.687 18.009 21.9012V21.5799H17.4496V24.1503H18.009V22.7045C18.009 22.2761 18.1955 22.0351 18.5418 22.0351C18.6484 22.0351 18.7816 22.0619 18.8882 22.0886L19.048 21.5532C18.9415 21.5264 18.7816 21.5264 18.6751 21.5264ZM10.4697 21.5264C10.8693 21.5264 11.2423 21.6067 11.5087 21.7941L11.2689 22.2493C11.1091 22.169 10.7894 22.0351 10.4697 22.0351C10.1767 22.0351 9.9902 22.1422 9.9902 22.3296C9.9902 22.4903 10.1767 22.5438 10.4164 22.5706L10.6829 22.5974C11.2157 22.6777 11.562 22.9186 11.562 23.3738C11.562 23.8558 11.1357 24.2038 10.3898 24.2038C9.9902 24.2038 9.59059 24.0967 9.29755 23.8825L9.56395 23.4541C9.75044 23.588 10.0435 23.7219 10.4164 23.7219C10.7894 23.7219 11.0025 23.588 11.0025 23.4006C11.0025 23.2667 10.8427 23.1864 10.5496 23.1328L10.2832 23.1061C9.7238 23.0257 9.40411 22.7848 9.40411 22.3564C9.40411 21.8477 9.83036 21.5264 10.4697 21.5264ZM26.3742 21.5264C26.0545 21.5264 25.8414 21.687 25.7082 21.9012V21.5799H25.1487V24.1503H25.7082V22.7045C25.7082 22.2761 25.8946 22.0351 26.241 22.0351C26.3475 22.0351 26.4807 22.0619 26.5873 22.0886L26.7471 21.5532C26.6406 21.5264 26.4807 21.5264 26.3742 21.5264ZM20.5932 24.2038C19.7673 24.2038 19.2345 23.6416 19.2345 22.8651C19.2345 22.0886 19.7673 21.5264 20.5932 21.5264C20.9661 21.5264 21.2325 21.6067 21.499 21.8209L21.2325 22.2761C21.0194 22.1154 20.8063 22.0351 20.5665 22.0351C20.1136 22.0619 19.794 22.3832 19.794 22.8651C19.794 23.3738 20.1136 23.6951 20.5665 23.6951C20.8063 23.6951 21.0194 23.6148 21.2325 23.4541L21.499 23.9093C21.2325 24.1235 20.9661 24.2038 20.5932 24.2038ZM24.4028 22.8651V21.5799H23.8433V21.9012C23.6568 21.6602 23.3904 21.5264 23.0441 21.5264C22.3248 21.5264 21.7654 22.0886 21.7654 22.8651C21.7654 23.6416 22.3248 24.2038 23.0441 24.2038C23.4171 24.2038 23.6835 24.07 23.8433 23.829V24.1503H24.4028V22.8651ZM23.124 22.0351C22.6445 22.0351 22.3514 22.4099 22.3514 22.8651C22.3514 23.3203 22.6445 23.6683 23.124 23.6951C23.5769 23.6951 23.8966 23.3203 23.8966 22.8651C23.8966 22.3832 23.5769 22.0351 23.124 22.0351ZM15.6647 21.5264C14.9187 21.5264 14.3859 22.0619 14.3859 22.8651C14.3859 23.6683 14.9187 24.2038 15.6913 24.2038C16.0643 24.2038 16.4372 24.0967 16.7303 23.8558L16.4639 23.4541C16.2508 23.6148 15.9844 23.7219 15.7179 23.7219C15.3716 23.7219 15.0253 23.5612 14.9454 23.1061H16.8369V22.8919C16.8635 22.0619 16.384 21.5264 15.6647 21.5264ZM16.304 22.6241C16.2508 22.2225 16.011 22.0083 15.6647 22.0083C15.2651 22.0083 15.0253 22.2761 14.972 22.6241H16.304ZM28.2657 22.0351C27.7861 22.0351 27.4931 22.4099 27.4931 22.8651C27.4931 23.3203 27.7861 23.6683 28.2657 23.6951C28.7185 23.6951 29.0382 23.3203 29.0382 22.8651C29.0382 22.3832 28.7185 22.0351 28.2657 22.0351ZM8.79138 22.8651V21.5799H8.23192V21.9012C8.04544 21.6602 7.77903 21.5264 7.43271 21.5264C6.71341 21.5264 6.15396 22.0886 6.15396 22.8651C6.15396 23.6416 6.71341 24.2038 7.43271 24.2038C7.80568 24.2038 8.07208 24.07 8.23192 23.829V24.1503H8.79138V22.8651ZM7.48599 22.0351C7.00646 22.0351 6.71341 22.4099 6.71341 22.8651C6.71341 23.3203 7.00646 23.6683 7.48599 23.6951C7.93888 23.6951 8.25856 23.3203 8.25856 22.8651C8.25856 22.3832 7.93888 22.0351 7.48599 22.0351Z" fill="white"/>
<path d="M19.7141 2.06152H11.3223V17.2158H19.7141V2.06152Z" fill="#FF5F00"/>
<path d="M11.8551 9.6388C11.8551 6.55974 13.2936 3.82875 15.5048 2.06163C13.8797 0.776459 11.8284 0 9.59061 0C4.28913 0 0 4.31069 0 9.6388C0 14.9669 4.28913 19.2776 9.59061 19.2776C11.8284 19.2776 13.8797 18.5011 15.5048 17.216C13.2936 15.4756 11.8551 12.7179 11.8551 9.6388Z" fill="#EB001B"/>
<path d="M31.036 9.6388C31.036 14.9669 26.747 19.2776 21.4455 19.2776C19.2076 19.2776 17.1563 18.5011 15.5312 17.216C17.7691 15.4489 19.181 12.7179 19.181 9.6388C19.181 6.55974 17.7424 3.82875 15.5312 2.06163C17.1563 0.776459 19.2076 0 21.4455 0C26.747 0 31.036 4.33746 31.036 9.6388Z" fill="#F79E1B"/>
</g>
</svg>
