<svg width="32" height="25" viewBox="0 0 32 25" fill="none" xmlns="http://www.w3.org/2000/svg">
<mask id="mask0_87_4623" style="mask-type:luminance" maskUnits="userSpaceOnUse" x="0" y="0" width="32" height="25">
<rect width="32" height="25" fill="white"/>
</mask>
<g mask="url(#mask0_87_4623)">
<path fill-rule="evenodd" clip-rule="evenodd" d="M30.4317 23.5519V21.1802H29.8555V22.5591C29.6634 22.3109 29.389 22.173 29.0323 22.173C28.2914 22.173 27.7151 22.7521 27.7151 23.5519C27.7151 24.3517 28.2914 24.9308 29.0323 24.9308C29.4164 24.9308 29.6908 24.793 29.8555 24.5447V24.8757H30.4317V23.5519ZM13.4186 22.2282H14.3515V22.7521H13.4186V23.938C13.4186 24.2138 13.5283 24.3793 13.8027 24.3793C13.9399 24.3793 14.132 24.3517 14.2967 24.2414L14.4613 24.7378C14.2692 24.8481 13.9948 24.9308 13.7478 24.9308C13.0893 24.9308 12.8423 24.5723 12.8423 23.9656V22.7521H12.3209V22.2282H12.8423V21.4284H13.4186V22.2282ZM5.81755 23.221V24.8757H5.18642V23.414C5.18642 22.9728 4.99433 22.7246 4.61016 22.7246C4.25344 22.7246 3.97903 22.9452 3.97903 23.414V24.8757H3.40278V23.414C3.40278 22.9728 3.21069 22.7246 2.82653 22.7246C2.44236 22.7246 2.19539 22.9452 2.19539 23.414V24.8757H1.61914V22.2282H2.19539V22.5591C2.41492 22.2557 2.68932 22.173 2.96373 22.173C3.37534 22.173 3.64974 22.3385 3.84183 22.6418C4.08879 22.2833 4.44552 22.173 4.77481 22.173C5.43338 22.173 5.81755 22.5867 5.81755 23.221ZM19.236 22.173C18.9067 22.173 18.6871 22.3385 18.5499 22.5591V22.2282H17.9737V24.8757H18.5499V23.3865C18.5499 22.9452 18.742 22.697 19.0988 22.697C19.2085 22.697 19.3457 22.7246 19.4555 22.7521L19.6201 22.2006C19.5104 22.173 19.3457 22.173 19.236 22.173ZM10.7843 22.173C11.1959 22.173 11.5801 22.2557 11.8544 22.4488L11.6075 22.9176C11.4429 22.8349 11.1136 22.697 10.7843 22.697C10.4825 22.697 10.2904 22.8073 10.2904 23.0004C10.2904 23.1658 10.4825 23.221 10.7294 23.2486L11.0038 23.2761C11.5526 23.3589 11.9093 23.6071 11.9093 24.0759C11.9093 24.5723 11.4703 24.9308 10.702 24.9308C10.2904 24.9308 9.87876 24.8205 9.57691 24.5999L9.85132 24.1587C10.0434 24.2965 10.3453 24.4344 10.7294 24.4344C11.1136 24.4344 11.3331 24.2965 11.3331 24.1035C11.3331 23.9656 11.1685 23.8829 10.8666 23.8277L10.5922 23.8001C10.016 23.7174 9.68667 23.4692 9.68667 23.0279C9.68667 22.5039 10.1257 22.173 10.7843 22.173ZM27.1663 22.173C26.837 22.173 26.6175 22.3385 26.4803 22.5591V22.2282H25.904V24.8757H26.4803V23.3865C26.4803 22.9452 26.6724 22.697 27.0291 22.697C27.1389 22.697 27.2761 22.7246 27.3858 22.7521L27.5505 22.2006C27.4407 22.173 27.2761 22.173 27.1663 22.173ZM21.2117 24.9308C20.361 24.9308 19.8122 24.3517 19.8122 23.5519C19.8122 22.7521 20.361 22.173 21.2117 22.173C21.5959 22.173 21.8703 22.2557 22.1447 22.4764L21.8703 22.9452C21.6507 22.7797 21.4312 22.697 21.1842 22.697C20.7178 22.7246 20.3885 23.0555 20.3885 23.5519C20.3885 24.0759 20.7178 24.4069 21.1842 24.4069C21.4312 24.4069 21.6507 24.3241 21.8703 24.1587L22.1447 24.6275C21.8703 24.8481 21.5959 24.9308 21.2117 24.9308ZM25.1357 23.5519V22.2282H24.5594V22.5591C24.3674 22.3109 24.0929 22.173 23.7362 22.173C22.9953 22.173 22.4191 22.7521 22.4191 23.5519C22.4191 24.3517 22.9953 24.9308 23.7362 24.9308C24.1204 24.9308 24.3948 24.793 24.5594 24.5447V24.8757H25.1357V23.5519ZM23.8185 22.697C23.3246 22.697 23.0228 23.0831 23.0228 23.5519C23.0228 24.0208 23.3246 24.3793 23.8185 24.4069C24.285 24.4069 24.6143 24.0208 24.6143 23.5519C24.6143 23.0555 24.285 22.697 23.8185 22.697ZM16.1352 22.173C15.3668 22.173 14.818 22.7246 14.818 23.5519C14.818 24.3793 15.3668 24.9308 16.1626 24.9308C16.5468 24.9308 16.9309 24.8205 17.2328 24.5723L16.9584 24.1587C16.7389 24.3241 16.4645 24.4344 16.1901 24.4344C15.8333 24.4344 15.4766 24.269 15.3943 23.8001H17.3426V23.5795C17.37 22.7246 16.8761 22.173 16.1352 22.173ZM16.7937 23.3037C16.7389 22.89 16.4919 22.6694 16.1352 22.6694C15.7236 22.6694 15.4766 22.9452 15.4217 23.3037H16.7937ZM29.1146 22.697C28.6206 22.697 28.3188 23.0831 28.3188 23.5519C28.3188 24.0208 28.6206 24.3793 29.1146 24.4069C29.5811 24.4069 29.9104 24.0208 29.9104 23.5519C29.9104 23.0555 29.5811 22.697 29.1146 22.697ZM9.05554 23.5519V22.2282H8.47929V22.5591C8.2872 22.3109 8.0128 22.173 7.65607 22.173C6.91517 22.173 6.33892 22.7521 6.33892 23.5519C6.33892 24.3517 6.91517 24.9308 7.65607 24.9308C8.04024 24.9308 8.31465 24.793 8.47929 24.5447V24.8757H9.05554V23.5519ZM7.71095 22.697C7.21702 22.697 6.91517 23.0831 6.91517 23.5519C6.91517 24.0208 7.21702 24.3793 7.71095 24.4069C8.17744 24.4069 8.50673 24.0208 8.50673 23.5519C8.50673 23.0555 8.17744 22.697 7.71095 22.697Z" fill="#242424"/>
<path d="M20.3059 2.12354H11.6621V17.7329H20.3059V2.12354Z" fill="#828282"/>
<path d="M12.2111 9.92826C12.2111 6.75673 13.6929 3.94372 15.9704 2.12354C14.2965 0.799776 12.1836 0 9.87861 0C4.41794 0 0 4.44014 0 9.92826C0 15.4164 4.41794 19.8565 9.87861 19.8565C12.1836 19.8565 14.2965 19.0567 15.9704 17.733C13.6929 15.9404 12.2111 13.0998 12.2111 9.92826Z" fill="#242424"/>
<path d="M31.9684 9.92826C31.9684 15.4164 27.5505 19.8565 22.0899 19.8565C19.7848 19.8565 17.6719 19.0567 15.998 17.733C18.3031 15.9128 19.7574 13.0998 19.7574 9.92826C19.7574 6.75673 18.2756 3.94372 15.998 2.12354C17.6719 0.799776 19.7848 0 22.0899 0C27.5505 0 31.9684 4.46772 31.9684 9.92826Z" fill="#BDBDBD"/>
</g>
</svg>
