<svg width="20" height="20" viewBox="0 0 20 20" fill="none" xmlns="http://www.w3.org/2000/svg">
<path fill-rule="evenodd" clip-rule="evenodd" d="M16.6667 4.06044L17.9687 16.3104C17.988 16.4059 18 16.5041 18 16.6059C18 17.376 17.4033 17.9998 16.6667 17.9998H10H3.33333C2.59667 17.9998 2 17.376 2 16.6059C2 16.5041 2.012 16.4059 2.03133 16.3104L3.33333 4.06044C3.33333 3.29029 3.93 2.6665 4.66667 2.6665H10H15.3333C16.07 2.6665 16.6667 3.29029 16.6667 4.06044ZM13.3333 6.84832V6.08723C13.7207 5.94365 14 5.56032 14 5.10589C14 4.5288 13.552 4.06044 13 4.06044C12.448 4.06044 12 4.5288 12 5.10589V6.84832C12 8.00111 11.1027 8.93923 10 8.93923C8.89733 8.93923 8 8.00111 8 6.84832V5.10589C8 4.5288 7.552 4.06044 7 4.06044C6.448 4.06044 6 4.5288 6 5.10589C6 5.56032 6.27933 5.94365 6.66667 6.08723V6.84832C6.66667 8.76986 8.162 10.3332 10 10.3332C11.838 10.3332 13.3333 8.76986 13.3333 6.84832Z" fill="#242424"/>
</svg>
