<svg width="20" height="20" viewBox="0 0 20 20" fill="none" xmlns="http://www.w3.org/2000/svg">
<path d="M19.9824 7.72462C19.9401 7.59503 19.8281 7.50052 19.6931 7.48083L13.217 6.53966L10.3209 0.67144C10.2607 0.549006 10.1361 0.47168 10.0001 0.47168C9.86406 0.47168 9.73912 0.549006 9.67934 0.67144L6.78282 6.54002L0.306722 7.48119C0.171758 7.50087 0.0600646 7.59503 0.0174634 7.72498C-0.0244218 7.85421 0.0103036 7.9967 0.108036 8.09156L4.79452 12.6596L3.68797 19.1099C3.66505 19.2441 3.72019 19.3798 3.83009 19.46C3.94071 19.5409 4.08713 19.5513 4.20706 19.4872L10.0001 16.4421L15.7924 19.4872C15.8447 19.5148 15.9023 19.5284 15.9593 19.5284C16.0334 19.5284 16.1071 19.5055 16.1698 19.46C16.28 19.3798 16.3351 19.2441 16.3119 19.1099L15.2057 12.6599L19.8922 8.09156C19.9895 7.99598 20.0246 7.85386 19.9824 7.72462V7.72462Z" fill="#F2C94C"/>
</svg>
